<svg width="21" height="39" viewBox="0 0 21 39" fill="none" xmlns="http://www.w3.org/2000/svg">
<path d="M18.1843 19.5016L0.345469 37.0354C-0.111435 37.4847 -0.111435 38.2136 0.345469 38.663C0.802372 39.1123 1.54345 39.1123 2.00035 38.663L20.6546 20.3162C20.8754 20.1012 21 19.8067 21 19.5013C21 19.196 20.8754 18.9015 20.6546 18.6864L2.00035 0.339712C1.78174 0.122557 1.48442 -1.70611e-06 1.17179 -1.73344e-06C0.861358 -1.76058e-06 0.564066 0.122557 0.345411 0.339712C0.124612 0.55472 3.33543e-06 0.847139 3.30855e-06 1.15462C3.28186e-06 1.45993 0.124612 1.75232 0.345411 1.96737L18.1843 19.5016Z" fill="white"/>
</svg>
