<svg width="48" height="57" viewBox="0 0 48 57" fill="none" xmlns="http://www.w3.org/2000/svg">
<path d="M23.797 0.0148293C23.6703 0.0375986 23.5461 0.0780777 23.4321 0.136266L0.72972 11.0656C0.286316 11.2807 0.00505939 11.7284 0 12.2192V20.9828C0 37.0326 9.62063 50.7857 23.473 56.8881C23.8074 57.0373 24.1926 57.0373 24.527 56.8881C38.3813 50.7858 48 37.0332 48 20.9828V12.2192C47.9949 11.7284 47.7137 11.2806 47.2703 11.0656L24.5679 0.136266C24.3297 0.0173617 24.0605 -0.0256498 23.797 0.0148293ZM23.9997 2.72693L45.4048 13.0494V20.9833C45.4048 35.7883 36.6481 48.4203 23.9997 54.237C11.3512 48.4181 2.59456 35.7863 2.59456 20.9833V13.0494L23.9997 2.72693ZM35.5532 19.4244C35.2619 19.4547 34.9908 19.5838 34.783 19.7887L20.7763 33.1669L14.5331 26.9331C14.2899 26.6826 13.9579 26.5409 13.6083 26.5409C13.2611 26.5384 12.9267 26.6776 12.6809 26.9255C12.4351 27.1734 12.3008 27.5074 12.3059 27.8565C12.311 28.2031 12.4554 28.5346 12.7088 28.7749L19.8438 35.8992C20.3404 36.39 21.1386 36.4002 21.6478 35.9195L36.5665 21.6708C36.9821 21.2939 37.1088 20.6918 36.8782 20.1807C36.6451 19.6671 36.1107 19.3637 35.5532 19.4244Z" fill="#377EE4"/>
</svg>
